# xmcd
#
# Track frame offsets:
#	150
#	24165
#	37328
#	52498
#	71627
#	105545
#	128892
#	146716
#	171222
#	179751
#	205505
#	224425
#	243521
#
# Disc length: 3454 seconds
#
# Revision: 5
# Processed by: cddbd v1.4PL0 Copyright (c) Steve Scherf et al.
# Submitted via: EasyCDDAExtractor 5.0.6
#
DISCID=ce0d7c0d
DTITLE=Bad Livers - Industry and Thrift
DYEAR=1998
DGENRE=Bluegrass
TTITLE0=Lumpy, Beanpole and Dirt
TTITLE1=I'm Goin' Back to Mom and Dad
TTITLE2=I'm Convicted
TTITLE3=Brand New Hat
TTITLE4=Hollywood Blues
TTITLE5=Honey, I've Found a Brand New Way - It's All the Same to Me
TTITLE6=A Yid Ist Geboren inz Oklahoma
TTITLE7=Captain, Oh Captain
TTITLE8=Jalopy
TTITLE9=Doin' My Time
TTITLE10=Cannonball Rag
TTITLE11=Anna Lee
TTITLE12=?
EXTD=
EXTT0=
EXTT1=
EXTT2=
EXTT3=
EXTT4=
EXTT5=
EXTT6=
EXTT7=
EXTT8=
EXTT9=
EXTT10=
EXTT11=
EXTT12=
PLAYORDER=
